#N canvas 707 74 511 517 10;
#X floatatom 111 188 5 0 0 0 - - -;
#X floatatom 148 286 5 0 0 0 - - -;
#X floatatom 202 327 5 0 0 0 - - -;
#X obj 118 331 f;
#X obj 118 430 vline~;
#X msg 118 403 1 \$1 \, 0 \$2 \$1;
#X obj 118 373 pack f f;
#X obj 205 171 random 2;
#X obj 119 110 t f b;
#X obj 112 220 expr if ($f2 == 0 \, $f1/3 \, $f1/6) \; if ($f2 == 1
\, $f1/3 \, $f1/6);
#X text 148 269 attack;
#X text 221 312 decay;
#X text 261 169 attack/decay is bigger;
#X obj 89 13 inlet;
#X obj 176 13 inlet;
#X text 128 12 X;
#X text 210 13 Y;
#X text 174 100 random [X-Y];
#X obj 115 81 random;
#X obj 118 475 outlet~;
#X obj 112 151 +;
#X obj 45 54 bng 15 250 50 0 empty empty empty 17 7 0 10 -262144 -1
-1;
#X obj 26 11 inlet;
#X obj 146 48 -;
#X floatatom 181 78 5 0 0 0 - - -;
#X connect 0 0 9 0;
#X connect 1 0 3 1;
#X connect 2 0 6 1;
#X connect 3 0 6 0;
#X connect 4 0 19 0;
#X connect 5 0 4 0;
#X connect 6 0 5 0;
#X connect 7 0 9 1;
#X connect 8 0 20 0;
#X connect 8 1 7 0;
#X connect 9 0 1 0;
#X connect 9 0 3 0;
#X connect 9 1 2 0;
#X connect 13 0 20 1;
#X connect 13 0 23 1;
#X connect 14 0 23 0;
#X connect 18 0 8 0;
#X connect 20 0 0 0;
#X connect 21 0 18 0;
#X connect 22 0 21 0;
#X connect 23 0 18 1;
#X connect 23 0 24 0;
