#N canvas 0 0 1366 685 10;
#X obj -321 -30 tgl 15 0 empty empty empty 17 7 0 10 -262144 -1 -1
0 1;
#X obj -320 20 counter;
#X floatatom -320 53 5 0 0 0 - - -;
#X obj -321 -58 bng 15 250 50 0 empty empty empty 17 7 0 10 -4034 -1
-1;
#X text -326 -77 play;
#X floatatom -319 115 5 0 0 0 - - -;
#X floatatom -274 151 5 0 0 0 - - -;
#X floatatom -228 183 5 0 0 0 - - -;
#X text -282 49 main clock;
#X text -322 132 part 1;
#X text -278 169 part 2;
#X text -228 202 part 3;
#X obj -223 -58 bng 15 250 50 0 empty empty empty 17 7 0 10 -258113
-1 -1;
#X text -226 -77 stop;
#X obj -319 192 send part1;
#X obj -272 226 send part2;
#X obj -228 259 send part3;
#X obj -90 -84 receive part1;
#X obj -321 -5 metro 1000;
#X text -69 103 sequencer part 1;
#X obj -90 64 metro 50;
#X obj -25 64 random 100;
#X obj -90 104 bng 15 250 50 0 empty empty empty 0 -6 0 8 -262144 -1
-1;
#X obj -90 30 tgl 15 0 empty empty empty 0 -6 0 8 -262144 -1 -1 0 1
;
#X obj -90 -44 expr if ($f1 <= 29 \, 1 \, 0);
#X obj -319 82 moses 31;
#X obj -274 115 moses 61;
#X obj -228 148 moses 91;
#X obj -90 -5 spigot;
#X obj 91 -44 expr if ($f1 == 0 || $f1 == 29 \, 1 \, 0);
#X obj 32 -1 loadbang;
#X msg 32 29 5000;
#X obj -280 529 dac~;
#X floatatom 100 261 5 0 0 0 - - -;
#X floatatom 140 261 5 0 0 0 - - -;
#X floatatom 185 260 5 0 0 0 - - -;
#X obj -279 478 *~;
#X obj 77 200 t b b b;
#X obj 77 154 bng 15 250 50 0 empty empty empty 0 -6 0 8 -262144 -1
-1;
#X obj -386 441 metro 100;
#X obj -113 413 vsl 15 128 0 1 0 0 empty empty empty 0 -9 0 10 -262144
-1 -1 0 1;
#N canvas 0 22 450 300 (subpatch) 0;
#X array Wave 1000 float 0;
#X coords 0 1 999 -1 200 100 1 0 0;
#X restore -329 288 graph;
#X text -328 390 Graphic output;
#X text -130 547 main volume;
#X obj 223 225 random 2;
#X obj -385 494 tabwrite~ Wave;
#X obj -347 393 tgl 15 1 empty empty empty 0 -6 0 10 -262144 -1 -1
1 1;
#X obj 204 154 random 20;
#X obj 215 188 random 20;
#X obj 154 382 myam;
#X obj 225 384 myfm;
#X obj 220 445 s~ main;
#X obj -280 441 r~ main;
#X floatatom -47 234 5 0 0 0 - - -;
#X msg -83 185 clear;
#X obj 8 217 bng 15 250 50 0 empty empty empty 0 -6 0 8 -262144 -1
-1;
#X obj -55 350 demux 0 1 2 3;
#X msg 11 254 3;
#X floatatom -37 281 5 0 0 0 - - -;
#X obj -19 187 urn 3;
#X obj -34 317 t b f;
#X obj 110 310 pack f f f;
#X obj 253 314 pack f f;
#X obj 313 279 random 2;
#X obj 244 282 random 20;
#X obj 339 227 bng 15 250 50 0 empty empty empty 17 7 0 10 -262144
-1 -1;
#X obj 575 58 metro 50;
#X obj 576 107 bng 15 250 50 0 empty empty empty 0 -6 0 8 -262144 -1
-1;
#X obj 575 25 tgl 15 0 empty empty empty 0 -6 0 8 -262144 -1 -1 0 1
;
#X obj 575 -11 spigot;
#X obj 697 -7 loadbang;
#X obj 575 -50 expr if ($f1 <= 59 \, 1 \, 0);
#X obj 640 58 random 100;
#X text 624 106 sequencers part 2;
#X obj 599 107 bng 15 250 50 0 empty empty empty 17 7 0 10 -262144
-1 -1;
#X obj 355 124 spigot;
#X obj 437 85 f;
#X obj 464 85 + 1;
#X obj 455 137 expr if($f1 % 3 == 0 \, 1 \, 0 );
#X obj 465 184 random 30;
#X obj 465 219 + 10;
#X obj 534 185 random 30;
#X obj 560 339 myam;
#X floatatom 465 255 5 0 0 0 - - -;
#X floatatom 533 253 5 0 0 0 - - -;
#X obj 534 304 pack f f f;
#X floatatom 609 224 5 0 0 0 - - -;
#X obj 614 189 random 2;
#X obj 534 220 + 0;
#X obj -223 440 r~ main2;
#X obj 542 376 s~ main2;
#X obj -168 438 r~ main3;
#X obj 698 329 myfm;
#X floatatom 790 248 5 0 0 0 - - -;
#X obj 788 214 + 1;
#X obj 786 181 random 2;
#X obj 696 189 random 20;
#X obj 702 223 + 10;
#X floatatom 700 263 5 0 0 0 - - -;
#X obj 751 300 pack f f;
#X obj 1122 63 metro 50;
#X obj 1120 112 bng 15 250 50 0 empty empty empty 0 -6 0 8 -262144
-1 -1;
#X obj 1122 30 tgl 15 0 empty empty empty 0 -6 0 8 -262144 -1 -1 1
1;
#X obj 1122 -6 spigot;
#X obj 1244 -2 loadbang;
#X obj 1187 63 random 100;
#X msg 1244 28 2500;
#X obj 1146 112 bng 15 250 50 0 empty empty empty 17 7 0 10 -262144
-1 -1;
#X obj 882 131 spigot;
#X obj 984 90 f;
#X obj 1011 90 + 1;
#X obj 971 215 random 30;
#X obj 971 250 + 10;
#X obj 1040 216 random 30;
#X obj 1066 370 myam;
#X floatatom 971 286 5 0 0 0 - - -;
#X floatatom 1039 284 5 0 0 0 - - -;
#X obj 1040 335 pack f f f;
#X floatatom 1115 255 5 0 0 0 - - -;
#X obj 1120 220 random 2;
#X obj 1040 251 + 0;
#X obj 1204 360 myfm;
#X floatatom 1296 279 5 0 0 0 - - -;
#X obj 1294 245 + 1;
#X obj 1292 212 random 2;
#X obj 1202 220 random 20;
#X obj 1208 254 + 10;
#X floatatom 1206 294 5 0 0 0 - - -;
#X obj 1257 331 pack f f;
#X obj 576 -90 r part2;
#X obj 755 -53 expr if ($f1 == 31 || $f1 == 59 \, 1 \, 0);
#X obj 1122 -85 receive part3;
#X obj 1122 -45 expr if ($f1 <= 89 \, 1 \, 0);
#X obj 1303 -45 expr if ($f1 == 61 || $f1 == 89 \, 1 \, 0);
#X text 1208 111 sequencers part 3;
#X msg 696 22 3500;
#X obj 1170 112 bng 15 250 50 0 empty empty empty 17 7 0 10 -262144
-1 -1;
#X obj 857 401 expr if($f1 % 6 ==0 \, 1 \, 0);
#X obj 893 -9 expr if($f1 % 3 == 0 \, 1 \, 0 );
#X obj 853 457 spigot;
#X obj 1048 407 s~ main3;
#X obj 1371 358 myfm;
#X floatatom 1463 277 5 0 0 0 - - -;
#X obj 1461 243 + 1;
#X obj 1459 210 random 2;
#X obj 1375 252 + 10;
#X floatatom 1373 292 5 0 0 0 - - -;
#X obj 1424 329 pack f f;
#X obj 1369 218 random 10;
#X connect 0 0 18 0;
#X connect 1 0 2 0;
#X connect 2 0 25 0;
#X connect 3 0 0 0;
#X connect 3 0 1 2;
#X connect 5 0 14 0;
#X connect 6 0 15 0;
#X connect 7 0 16 0;
#X connect 12 0 0 0;
#X connect 17 0 24 0;
#X connect 17 0 29 0;
#X connect 18 0 1 0;
#X connect 20 0 22 0;
#X connect 20 0 21 0;
#X connect 21 0 20 1;
#X connect 22 0 59 0;
#X connect 23 0 20 0;
#X connect 24 0 28 0;
#X connect 25 0 5 0;
#X connect 25 1 26 0;
#X connect 26 0 6 0;
#X connect 26 1 27 0;
#X connect 27 0 7 0;
#X connect 27 1 12 0;
#X connect 28 0 23 0;
#X connect 29 0 28 1;
#X connect 30 0 31 0;
#X connect 31 0 21 1;
#X connect 33 0 61 0;
#X connect 34 0 61 1;
#X connect 35 0 61 2;
#X connect 36 0 32 0;
#X connect 36 0 32 1;
#X connect 36 0 45 0;
#X connect 37 0 33 0;
#X connect 37 1 34 0;
#X connect 37 2 35 0;
#X connect 38 0 37 0;
#X connect 38 0 44 0;
#X connect 38 0 47 0;
#X connect 38 0 48 0;
#X connect 39 0 45 0;
#X connect 40 0 36 1;
#X connect 44 0 35 0;
#X connect 46 0 39 0;
#X connect 47 0 33 0;
#X connect 48 0 34 0;
#X connect 49 0 51 0;
#X connect 50 0 51 0;
#X connect 52 0 36 0;
#X connect 53 0 58 0;
#X connect 54 0 59 0;
#X connect 55 0 54 0;
#X connect 55 0 57 0;
#X connect 56 0 38 0;
#X connect 56 1 38 0;
#X connect 56 2 38 0;
#X connect 56 3 65 0;
#X connect 57 0 58 0;
#X connect 58 0 60 0;
#X connect 59 0 53 0;
#X connect 59 1 55 0;
#X connect 60 0 56 0;
#X connect 60 1 56 1;
#X connect 61 0 49 0;
#X connect 62 0 50 0;
#X connect 63 0 62 1;
#X connect 64 0 62 0;
#X connect 65 0 64 0;
#X connect 65 0 63 0;
#X connect 66 0 67 0;
#X connect 66 0 72 0;
#X connect 67 0 75 0;
#X connect 67 0 76 0;
#X connect 67 0 79 0;
#X connect 67 0 81 0;
#X connect 67 0 87 0;
#X connect 68 0 66 0;
#X connect 69 0 68 0;
#X connect 70 0 135 0;
#X connect 71 0 69 0;
#X connect 72 0 66 1;
#X connect 74 0 95 0;
#X connect 74 0 96 0;
#X connect 75 0 74 0;
#X connect 76 0 77 0;
#X connect 76 0 78 0;
#X connect 77 0 76 1;
#X connect 78 0 75 1;
#X connect 79 0 80 0;
#X connect 80 0 83 0;
#X connect 81 0 88 0;
#X connect 82 0 90 0;
#X connect 83 0 85 0;
#X connect 84 0 85 1;
#X connect 85 0 82 0;
#X connect 86 0 85 2;
#X connect 87 0 86 0;
#X connect 88 0 84 0;
#X connect 89 0 36 0;
#X connect 91 0 36 0;
#X connect 92 0 90 0;
#X connect 93 0 99 1;
#X connect 94 0 93 0;
#X connect 95 0 94 0;
#X connect 96 0 97 0;
#X connect 97 0 98 0;
#X connect 98 0 99 0;
#X connect 99 0 92 0;
#X connect 100 0 101 0;
#X connect 100 0 105 0;
#X connect 101 0 108 0;
#X connect 101 0 109 0;
#X connect 101 0 111 0;
#X connect 101 0 113 0;
#X connect 101 0 119 0;
#X connect 101 0 139 0;
#X connect 102 0 100 0;
#X connect 103 0 102 0;
#X connect 104 0 106 0;
#X connect 105 0 100 1;
#X connect 106 0 105 1;
#X connect 107 0 124 0;
#X connect 107 0 125 0;
#X connect 108 0 107 0;
#X connect 109 0 110 0;
#X connect 109 0 137 0;
#X connect 109 0 138 0;
#X connect 110 0 109 1;
#X connect 111 0 112 0;
#X connect 112 0 115 0;
#X connect 113 0 120 0;
#X connect 114 0 140 0;
#X connect 115 0 117 0;
#X connect 116 0 117 1;
#X connect 117 0 114 0;
#X connect 118 0 117 2;
#X connect 119 0 118 0;
#X connect 120 0 116 0;
#X connect 121 0 140 0;
#X connect 122 0 128 1;
#X connect 123 0 122 0;
#X connect 124 0 123 0;
#X connect 125 0 126 0;
#X connect 126 0 127 0;
#X connect 127 0 128 0;
#X connect 128 0 121 0;
#X connect 129 0 71 0;
#X connect 129 0 130 0;
#X connect 130 0 69 1;
#X connect 131 0 132 0;
#X connect 131 0 133 0;
#X connect 132 0 103 0;
#X connect 133 0 103 1;
#X connect 135 0 72 1;
#X connect 136 0 144 0;
#X connect 136 0 148 0;
#X connect 137 0 139 1;
#X connect 138 0 108 1;
#X connect 139 0 136 0;
#X connect 141 0 140 0;
#X connect 142 0 147 1;
#X connect 143 0 142 0;
#X connect 144 0 143 0;
#X connect 145 0 146 0;
#X connect 146 0 147 0;
#X connect 147 0 141 0;
#X connect 148 0 145 0;
