#N canvas 167 18 776 685 10;
#X obj 167 245 osc~;
#X obj 168 327 *~;
#X obj 215 245 osc~;
#X floatatom 167 199 5 0 0 0 - - -;
#X floatatom 215 199 5 0 0 0 - - -;
#X obj 165 5 inlet;
#X obj 167 135 ntt;
#X obj 215 136 ntt;
#X obj 169 432 outlet~;
#X obj 204 98 expr $f1+$f2;
#X obj 169 41 unpack f f f;
#X text 247 39 f1=carry f2=modu f3=env type;
#X obj 313 148 bng 15 250 50 0 empty empty empty 17 7 0 10 -262144
-1 -1;
#X obj 169 386 *~;
#X obj 215 288 *~ 1;
#X obj 313 96 demux 0 1 2;
#X obj 443 132 bng 15 250 50 0 empty empty empty 17 7 0 10 -262144
-1 -1;
#X obj 599 135 bng 15 250 50 0 empty empty empty 17 7 0 10 -262144
-1 -1;
#X obj 434 407 envelope;
#X floatatom 412 361 5 0 0 0 - - -;
#X msg 275 264 500;
#X floatatom 482 359 5 0 0 0 - - -;
#X msg 345 262 2000;
#X msg 423 253 2000;
#X msg 492 251 5000;
#X msg 574 245 5000;
#X msg 644 242 10000;
#X connect 0 0 1 0;
#X connect 1 0 13 0;
#X connect 2 0 14 0;
#X connect 3 0 0 0;
#X connect 4 0 2 0;
#X connect 5 0 10 0;
#X connect 5 0 15 0;
#X connect 6 0 3 0;
#X connect 7 0 4 0;
#X connect 9 0 7 0;
#X connect 10 0 6 0;
#X connect 10 0 9 0;
#X connect 10 1 9 1;
#X connect 10 2 15 1;
#X connect 12 0 20 0;
#X connect 12 0 22 0;
#X connect 12 0 18 0;
#X connect 13 0 8 0;
#X connect 14 0 1 1;
#X connect 15 0 12 0;
#X connect 15 1 16 0;
#X connect 15 2 17 0;
#X connect 16 0 23 0;
#X connect 16 0 24 0;
#X connect 16 0 18 0;
#X connect 17 0 25 0;
#X connect 17 0 26 0;
#X connect 17 0 18 0;
#X connect 18 0 13 1;
#X connect 19 0 18 1;
#X connect 20 0 19 0;
#X connect 21 0 18 2;
#X connect 22 0 21 0;
#X connect 23 0 19 0;
#X connect 24 0 21 0;
#X connect 25 0 19 0;
#X connect 26 0 21 0;
