#N canvas 145 13 644 627 10;
#X obj 218 254 osc~;
#X obj 213 300 *~;
#X floatatom 136 155 5 0 0 0 - - -;
#X floatatom 220 179 5 0 0 0 - - -;
#X obj 169 341 +~;
#X obj 169 371 osc~;
#X obj 136 189 sig~;
#X obj 205 212 *~;
#X obj 271 242 *~;
#X floatatom 286 194 5 0 0 0 - - -;
#X text 219 159 harmonicty;
#X text 129 134 carry;
#X obj 167 454 outlet~;
#X obj 135 25 inlet carry;
#X obj 136 121 ntt;
#X text 285 169 index;
#X msg 373 146 0.166666;
#X msg 434 147 0.111111;
#X msg 290 147 0.333333;
#X obj 168 412 *~;
#X obj 416 288 bng 15 250 50 0 empty empty empty 17 7 0 10 -262144
-1 -1;
#X obj 416 236 demux 0 1 2;
#X obj 546 272 bng 15 250 50 0 empty empty empty 17 7 0 10 -262144
-1 -1;
#X obj 702 275 bng 15 250 50 0 empty empty empty 17 7 0 10 -262144
-1 -1;
#X obj 537 547 envelope;
#X floatatom 515 501 5 0 0 0 - - -;
#X msg 378 404 500;
#X floatatom 585 499 5 0 0 0 - - -;
#X msg 448 402 2000;
#X msg 526 393 2000;
#X msg 595 391 5000;
#X msg 677 385 5000;
#X msg 747 382 10000;
#X obj 136 62 unpack f f;
#X obj 358 49 bng 15 250 50 0 empty empty empty 17 7 0 10 -262144 -1
-1;
#X obj 362 116 demux 0 1 2 3;
#X obj 362 87 random 4;
#X msg 502 147 0.6666;
#X connect 0 0 1 0;
#X connect 1 0 4 1;
#X connect 2 0 6 0;
#X connect 3 0 7 1;
#X connect 4 0 5 0;
#X connect 5 0 19 0;
#X connect 6 0 4 0;
#X connect 6 0 7 0;
#X connect 7 0 0 0;
#X connect 7 0 8 0;
#X connect 8 0 1 1;
#X connect 9 0 8 1;
#X connect 13 0 33 0;
#X connect 13 0 21 0;
#X connect 13 0 34 0;
#X connect 14 0 2 0;
#X connect 16 0 9 0;
#X connect 17 0 9 0;
#X connect 18 0 9 0;
#X connect 19 0 12 0;
#X connect 20 0 26 0;
#X connect 20 0 28 0;
#X connect 20 0 24 0;
#X connect 21 0 20 0;
#X connect 21 1 22 0;
#X connect 21 2 23 0;
#X connect 22 0 29 0;
#X connect 22 0 30 0;
#X connect 22 0 24 0;
#X connect 23 0 31 0;
#X connect 23 0 32 0;
#X connect 23 0 24 0;
#X connect 24 0 19 1;
#X connect 25 0 24 1;
#X connect 26 0 25 0;
#X connect 27 0 24 2;
#X connect 28 0 27 0;
#X connect 29 0 25 0;
#X connect 30 0 27 0;
#X connect 31 0 25 0;
#X connect 32 0 27 0;
#X connect 33 0 14 0;
#X connect 33 0 3 0;
#X connect 33 1 21 1;
#X connect 34 0 36 0;
#X connect 35 0 18 0;
#X connect 35 1 16 0;
#X connect 35 2 17 0;
#X connect 35 3 37 0;
#X connect 36 0 35 0;
#X connect 36 0 35 1;
#X connect 37 0 9 0;
